<svg xmlns="http://www.w3.org/2000/svg" width="117" height="113" viewBox="0 0 117 113">
    <g fill="none" fill-rule="evenodd">
        <g fill-rule="nonzero">
            <g>
                <path fill="#666" d="M29 24c-4.418 0-8 3.582-8 8s3.582 8 8 8 8-3.582 8-8c.001-2.122-.841-4.158-2.342-5.658-1.5-1.5-3.536-2.343-5.658-2.342zm0 12.012c-2.216 0-4.012-1.796-4.012-4.012 0-2.216 1.796-4.012 4.012-4.012 2.216 0 4.012 1.796 4.012 4.012 0 1.064-.422 2.085-1.175 2.837-.752.753-1.773 1.175-2.837 1.175z" transform="translate(-170 -1973) translate(170 1973)"/>
                <path fill="#666" d="M115.058 4H1.942c-.515 0-1.01.205-1.374.572C.204 4.938 0 5.435 0 5.954v98.07c0 .518.204 1.015.568 1.381.365.367.859.573 1.374.572H69.88v-3.93H6.65l5.85-5.884h57.38v-3.93H13.665V71.387L25.251 60.47c4.947 3.177 11.3 3.086 16.156-.23l17.801 15.767c.524.485 1.269.643 1.943.413.665-.232 1.16-.8 1.302-1.493.136-.703-.117-1.425-.662-1.885l-9.69-8.48 13.78-13.331c2.574 1.209 5.386 1.821 8.227 1.792 2.676.024 5.33-.508 7.792-1.562l3.908 1.448 17.55 14.64v24.707H97.85v3.93h6.65l5.85 5.884h-12.5V106h17.208c.515 0 1.01-.205 1.374-.572.364-.366.568-.863.568-1.382V5.954c0-.519-.204-1.016-.568-1.382-.365-.367-.859-.572-1.374-.572zM9.758 93.405l-5.85 5.884v-88.6l5.85 5.883v76.833zm18.418-35.693l4.982-4.689 5.187 4.574c-3.166 1.712-6.965 1.755-10.169.115zm45.932-8.596c-1.755.002-3.498-.277-5.165-.827l5.233-5.056 5.759 4.803c-1.861.714-3.836 1.08-5.827 1.08zm29.25 13.354l-17.55-14.64-3.908-3.264-5.233-4.367c-1.527-1.25-3.741-1.162-5.164.207l-22.35 21.58L35.74 50.106c-1.493-1.337-3.753-1.307-5.21.069L13.642 66.055V17.721h89.693V62.47h.023zM12.5 13.814L6.65 7.93h103.677l-5.85 5.884H12.5zm100.592 85.475l-5.85-5.884V16.572l5.85-5.884v88.6z" transform="translate(-170 -1973) translate(170 1973)"/>
                <path fill="#CF6766" d="M84.012 79.81h1.992c.529 0 1.036.202 1.41.564.373.362.583.853.583 1.365 0 1.065.892 1.929 1.992 1.929s1.992-.864 1.992-1.93c-.006-3.205-2.689-5.803-6-5.809 0-1.065-.892-1.929-1.993-1.929-1.1 0-1.992.864-1.992 1.929v.272c-3.896.973-6.438 4.6-5.932 8.464.506 3.865 3.9 6.763 7.924 6.764 2.214 0 4.009 1.737 4.009 3.88 0 2.144-1.795 3.881-4.009 3.881h-1.992c-.529 0-1.036-.202-1.41-.564-.373-.362-.583-.853-.583-1.365 0-1.065-.892-1.929-1.992-1.929s-1.992.864-1.992 1.93c.006 3.205 2.689 5.803 6 5.809 0 1.065.892 1.929 1.993 1.929 1.1 0 1.992-.864 1.992-1.929v-.272c3.896-.973 6.438-4.6 5.932-8.464-.506-3.865-3.9-6.763-7.924-6.764-2.214 0-4.009-1.737-4.009-3.88 0-2.144 1.795-3.881 4.009-3.881z" transform="translate(-170 -1973) translate(170 1973)"/>
                <path fill="#CF6766" d="M89.514 62.049h-4.085V1.937C85.429.867 84.565 0 83.5 0s-1.929.867-1.929 1.937v60.112h-4.085c-2.516-.002-4.93 1.002-6.709 2.788-1.78 1.787-2.778 4.21-2.777 6.737v37.757c0 .973.384 1.907 1.07 2.595.685.688 1.615 1.074 2.584 1.074h23.692c.97 0 1.9-.386 2.585-1.074.685-.688 1.07-1.622 1.069-2.595v-37.78c-.008-5.254-4.254-9.507-9.486-9.502zm5.628 47.054H71.881V71.551c0-3.121 2.52-5.651 5.628-5.651h4.085v2.757c0 1.07.863 1.937 1.929 1.937 1.065 0 1.929-.868 1.929-1.937v-2.735h4.085c3.108 0 5.628 2.53 5.628 5.652v37.53h-.023z" transform="translate(-170 -1973) translate(170 1973)"/>
            </g>
        </g>
    </g>
</svg>
