<svg xmlns="http://www.w3.org/2000/svg" width="117" height="117" viewBox="0 0 117 117">
    <g fill="none" fill-rule="evenodd">
        <g fill-rule="nonzero">
            <g>
                <path fill="#666" d="M111.107 0H5.847C2.622.006.008 2.622 0 5.85v79.958c.006 3.228 2.62 5.843 5.848 5.85h33.144v7.792c-7.53.004-13.633 6.11-13.637 13.642 0 1.037.411 2.031 1.144 2.764.732.733 1.726 1.144 2.762 1.144H87.74c1.036 0 2.03-.41 2.762-1.144.733-.733 1.144-1.727 1.144-2.764-.004-7.533-6.107-13.638-13.637-13.642v-7.792h33.144c3.227-.007 5.842-2.622 5.848-5.85V5.85c-.05-3.228-2.666-5.826-5.893-5.85zM87.716 113.092H29.239c.005-5.387 4.369-9.752 9.753-9.757h38.993c5.373.024 9.72 4.382 9.73 9.757zM74.056 99.45h-31.18v-7.792h31.18v7.792zm38.992-27.308h-3.906c-1.072 0-1.941.87-1.941 1.943s.869 1.942 1.941 1.942h3.906v9.758c.006.519-.196 1.018-.561 1.387-.365.37-.862.578-1.38.578H5.847c-.514 0-1.009-.204-1.373-.568-.364-.365-.568-.859-.568-1.374V76.05h66.267c1.072 0 1.941-.87 1.941-1.942 0-1.073-.87-1.943-1.941-1.943H3.906V5.85c0-.515.204-1.01.568-1.374.364-.365.859-.568 1.374-.568h105.259c.515 0 1.009.203 1.373.568.364.364.568.859.568 1.374v66.292z" transform="translate(-170 -2235) translate(170 2235)"/>
                <path fill="#666" d="M95.272 64.66l1.794-1.477c1.037-.854 1.568-2.212 1.4-3.578-.167-1.366-1.01-2.54-2.22-3.095l-19.938-9.166c-1.337-.625-2.901-.385-4.009.615-1.107 1.001-1.557 2.58-1.153 4.049l5.694 21.034c.346 1.27 1.28 2.275 2.486 2.679 1.206.404 2.526.152 3.517-.67l3.567-2.98 7.289 8.59c.698.81 1.68 1.294 2.725 1.339h.11c1.005-.001 1.969-.416 2.681-1.154l2.68-2.794c1.402-1.468 1.48-3.815.178-5.38l-6.801-8.012zm1.24 13.392l-8.485-9.997c-.663-.792-1.809-.894-2.592-.231l-4.984 4.156-5.694-21.034 19.939 9.166-3.323 2.77c-.401.338-.657.829-.71 1.363-.047.538.121 1.073.466 1.478l8.042 9.581-2.659 2.748zM62.006 10h-4.012C56.893 10 56 10.895 56 12s.893 2 1.994 2h4.012C63.107 14 64 13.105 64 12s-.893-2-1.994-2zM105.057 10H69.943C68.87 10 68 10.895 68 12s.87 2 1.943 2h35.114c1.073 0 1.943-.895 1.943-2s-.87-2-1.943-2zM63.004 80h-8.008C53.894 80 53 80.895 53 82s.894 2 1.996 2h8.008C64.106 84 65 83.105 65 82s-.894-2-1.996-2zM84.449 37.076c-.611-.257-1.16-.658-1.604-1.172-.252-.318-.616-.512-1.006-.537-.39-.025-.773.12-1.06.403l-.32.319c-.553.545-.614 1.452-.14 2.074.75.942 1.704 1.676 2.78 2.138.727.332 1.49.568 2.27.703v1.472c0 .842.641 1.524 1.432 1.524h.44c.79 0 1.432-.682 1.432-1.524v-1.444c.736-.102 1.455-.317 2.134-.637.971-.441 1.801-1.174 2.387-2.11.53-.876.81-1.897.806-2.94 0-1.375-.372-2.51-1.101-3.375-.639-.754-1.437-1.335-2.328-1.697-.522-.213-1.147-.426-1.892-.647v-5.084c.159.04.317.085.476.136.601.193 1.168.493 1.676.886.312.243.704.34 1.085.271s.72-.3.939-.639l.253-.389c.435-.676.291-1.597-.326-2.086-.774-.6-1.635-1.06-2.548-1.364-.508-.175-1.028-.305-1.555-.39v-1.443c0-.842-.64-1.524-1.431-1.524h-.44c-.791 0-1.432.682-1.432 1.524v1.495c-1.322.253-2.4.785-3.213 1.587-1.087 1.037-1.705 2.519-1.698 4.072 0 1.317.332 2.419.988 3.281.589.768 1.345 1.371 2.203 1.756.558.247 1.13.46 1.71.635v5.073c-.314-.09-.62-.205-.917-.347zm4.22-3.793c.241.082.457.162.66.234.405.159.768.42 1.057.762.073.087.29.35.29 1.062.015.604-.251 1.176-.71 1.53-.38.306-.821.512-1.289.603l-.009-4.19zm-3.65-4.784c-.377-.162-.71-.42-.969-.753-.201-.304-.296-.674-.269-1.045-.021-.59.22-1.156.65-1.528.274-.245.594-.427.938-.532v4.006c-.119-.049-.236-.098-.35-.148z" transform="translate(-170 -2235) translate(170 2235)"/>
                <path fill="#CF6766" d="M52.676 18H18.324c-2.939.004-5.32 2.385-5.324 5.324v34.352c.004 2.939 2.385 5.32 5.324 5.324h34.375c2.932-.01 5.304-2.391 5.301-5.324V23.324c-.004-2.939-2.385-5.32-5.324-5.324zm1.684 32.578H17.575l8.711-8.71 3.754 3.75L43.349 32.31 54.36 43.32v7.257zM18.324 21.64h34.352c.93.001 1.683.754 1.684 1.684v14.853l-11.011-11.01-13.31 13.308-3.753-3.754-9.646 9.646V23.324c.001-.93.754-1.683 1.684-1.684zm34.375 37.72H18.324c-.93-.001-1.683-.754-1.684-1.684v-3.458h37.72v3.458c.005.923-.738 1.676-1.66 1.684z" transform="translate(-170 -2235) translate(170 2235)"/>
                <path fill="#CF6766" d="M23 36c2.761 0 5-2.239 5-5s-2.239-5-5-5-5 2.239-5 5c.004 2.76 2.24 4.996 5 5zm0-6.491c.824 0 1.491.667 1.491 1.491 0 .824-.667 1.491-1.491 1.491-.824 0-1.491-.667-1.491-1.491.001-.823.668-1.49 1.491-1.491z" transform="translate(-170 -2235) translate(170 2235)"/>
            </g>
        </g>
    </g>
</svg>
