<svg xmlns="http://www.w3.org/2000/svg" width="117" height="117" viewBox="0 0 117 117">
    <g fill="none" fill-rule="evenodd">
        <g fill-rule="nonzero">
            <g>
                <path fill="#666" d="M111.15 0H5.85C2.62 0 0 2.62 0 5.85V85.8c0 3.23 2.62 5.85 5.85 5.85H39v7.8c-7.535.009-13.641 6.115-13.65 13.65 0 2.154 1.746 3.9 3.9 3.9h58.5c2.154 0 3.9-1.746 3.9-3.9-.009-7.535-6.115-13.641-13.65-13.65v-7.8h33.15c3.23 0 5.85-2.62 5.85-5.85V5.85c0-3.23-2.62-5.85-5.85-5.85zm-23.4 113.1h-58.5c.006-5.382 4.368-9.744 9.75-9.75h39c5.382.008 9.742 4.368 9.75 9.75zM74.1 99.45H42.9v-7.8h31.2v7.8zm37.05-11.7H5.85c-1.077 0-1.95-.873-1.95-1.95v-9.75h66.3c1.077 0 1.95-.873 1.95-1.95s-.873-1.95-1.95-1.95H3.9V5.85c0-1.077.873-1.95 1.95-1.95h105.3c1.077 0 1.95.873 1.95 1.95v66.3h-3.9c-1.077 0-1.95.873-1.95 1.95s.873 1.95 1.95 1.95h3.9v9.75c0 1.077-.873 1.95-1.95 1.95z" transform="translate(-783 -1224) translate(783 1224)"/>
                <path fill="#CF6766" d="M67.749 39.08l-5.805-3.262-18.768-18.765-3.328-5.92c-.759-1.172-2-1.945-3.388-2.108-1.147-.131-2.292.26-3.119 1.066L19.797 23.632c-.81.825-1.201 1.972-1.066 3.119.177 1.428.993 2.699 2.22 3.453l5.804 3.262 3.914 3.913-17.402 17.41c-3.023 3.023-3.023 7.923 0 10.945 3.022 3.021 7.923 3.021 10.945 0l17.402-17.402 3.917 3.916 3.328 5.92c.757 1.172 1.999 1.945 3.386 2.108.145.014.286.021.427.021 1.007.01 1.975-.382 2.692-1.089l13.544-13.541c.809-.824 1.201-1.97 1.066-3.117-.174-1.435-.993-2.713-2.225-3.47zm-15.197 3.76l-5.473 5.473L30.66 31.897l10.946-10.944 16.417 16.415-5.472 5.472zm-30.03-16.476l13.47-13.497h.03c.2.015.382.112.506.269l2.674 4.749-11.61 11.607-4.653-2.606c-.184-.132-.329-.313-.418-.522zm-1.053 36.62c-1.512 1.512-3.962 1.512-5.474 0-1.511-1.51-1.511-3.961 0-5.472L33.397 40.1l5.474 5.473-17.402 17.41zm31.224-6.577c-.21 0-.408-.1-.535-.267l-2.674-4.76 5.804-5.804 5.805-5.804 4.643 2.606c.186.136.333.319.424.53l-13.467 13.5z" transform="translate(-783 -1224) translate(783 1224)"/>
                <path fill="#666" d="M95.313 64.667l1.785-1.485c1.032-.861 1.557-2.22 1.386-3.586-.172-1.365-1.016-2.538-2.226-3.093l-19.95-9.169c-1.34-.614-2.9-.368-4.006.632-1.105 1-1.557 2.574-1.16 4.042l5.7 21.03c.345 1.271 1.278 2.278 2.485 2.681 1.208.404 2.529.15 3.52-.674l3.57-2.976 7.293 8.598c.69.816 1.675 1.298 2.718 1.333h.116c1.003-.002 1.965-.417 2.676-1.154l2.677-2.785c1.403-1.47 1.477-3.821.168-5.383l-6.752-8.01zm1.233 13.394L88.06 68.057c-.668-.787-1.811-.89-2.599-.235l-4.978 4.149-5.705-21.03 19.953 9.158-3.327 2.772c-.404.335-.658.828-.703 1.364-.046.536.12 1.067.46 1.472l8.056 9.569-2.672 2.785zM76.5 40c.828 0 1.5-.806 1.5-1.8v-5.4c0-.994-.672-1.8-1.5-1.8s-1.5.806-1.5 1.8v5.4c0 .994.672 1.8 1.5 1.8zM85.439 44.39l5-5c.758-.785.747-2.033-.025-2.804-.771-.772-2.019-.783-2.803-.025l-5 5c-.52.503-.729 1.246-.546 1.945.183.7.73 1.246 1.429 1.429.699.183 1.442-.026 1.945-.546zM58 12h4c1.105 0 2-.672 2-1.5S63.105 9 62 9h-4c-1.105 0-2 .672-2 1.5s.895 1.5 2 1.5zM104.1 9H69.9c-1.05 0-1.9.672-1.9 1.5s.85 1.5 1.9 1.5h34.2c1.05 0 1.9-.672 1.9-1.5s-.85-1.5-1.9-1.5zM63 80h-8c-1.105 0-2 .672-2 1.5s.895 1.5 2 1.5h8c1.105 0 2-.672 2-1.5s-.895-1.5-2-1.5z" transform="translate(-783 -1224) translate(783 1224)"/>
            </g>
        </g>
    </g>
</svg>
