<svg xmlns="http://www.w3.org/2000/svg" width="129" height="113" viewBox="0 0 129 113">
    <g fill="none" fill-rule="evenodd">
        <g fill-rule="nonzero">
            <g>
                <path fill="#666" d="M79 11c-14.36 0-26 11.64-26 26s11.64 26 26 26 26-11.64 26-26c-.016-14.353-11.647-25.984-26-26zm0 48c-12.192 0-22.075-9.85-22.075-22S66.808 15 79 15s22.075 9.85 22.075 22C101.062 49.145 91.186 58.987 79 59z" transform="translate(-783 -1482) translate(783 1482)"/>
                <path fill="#666" d="M126.685 73.939L107.52 54.69c3.283-5.328 5.019-11.471 5.011-17.736 0-18.683-15.134-33.864-33.738-33.864-14.944 0-27.646 9.804-32.066 23.339H4.057v-1.916h39.496c1.12 0 2.029-.912 2.029-2.036V7.83c-.001-1.124-.909-2.035-2.029-2.036H4.057V2.036C4.057.912 3.149 0 2.028 0 .908 0 0 .912 0 2.036v108.928C0 112.088.908 113 2.028 113s2.029-.912 2.029-2.036v-3.746h79.838c1.12 0 2.028-.912 2.028-2.036V90.53c-.001-1.124-.908-2.034-2.028-2.036H4.057v-1.997h49.13c1.12-.002 2.027-.912 2.029-2.036V69.809c0-1.124-.909-2.036-2.029-2.036H4.057V65.78h22.976c1.12 0 2.028-.911 2.028-2.036V49.093c-.001-1.124-.909-2.035-2.028-2.036H4.057v-1.904h42c3.663 14.723 16.95 25.672 32.731 25.672 6.1.006 12.085-1.657 17.313-4.81l19.237 19.31c3.138 3.113 8.191 3.099 11.312-.032 3.12-3.132 3.135-8.204.035-11.354zM41.525 9.854v10.58H4.06V9.854h37.466zm40.33 82.712v10.58H4.057v-10.58h77.798zm-30.696-20.72v10.579H4.057v-10.58h47.102zM25.004 51.128v10.58H4.057v-10.58h20.947zM4.057 41.08V30.5h41.616c-.672 3.486-.795 7.056-.366 10.58H4.057zm45.057-4.127C49.118 20.5 62.41 7.165 78.802 7.169c16.393.004 29.679 13.345 29.675 29.8-.004 16.453-13.296 29.788-29.689 29.784-16.385-.023-29.66-13.353-29.674-29.8zm74.693 45.48c-1.55 1.552-4.058 1.552-5.608 0L99.506 63.663c2.092-1.638 3.985-3.516 5.642-5.595l18.668 18.745c1.547 1.555 1.547 4.074 0 5.629l-.01-.008z" transform="translate(-783 -1482) translate(783 1482)"/>
                <path fill="#CF6766" d="M87.055 26.003c-.068-.004-.136-.004-.204 0H78.87c-1.077 0-1.95.977-1.95 2.183 0 1.205.873 2.182 1.95 2.182h3.129L69.655 44.186c-.542.538-.772 1.368-.598 2.155.174.787.722 1.4 1.425 1.595.703.195 1.444-.063 1.925-.669L85.1 33.06v3.893c0 1.206.873 2.183 1.95 2.183S89 38.158 89 36.952v-8.766c0-1.204-.87-2.18-1.945-2.183z" transform="translate(-783 -1482) translate(783 1482)"/>
            </g>
        </g>
    </g>
</svg>
