<svg xmlns="http://www.w3.org/2000/svg" width="102" height="122" viewBox="0 0 102 122">
    <g fill="none" fill-rule="evenodd">
        <g fill-rule="nonzero">
            <g>
                <path fill="#666" d="M101.97 120.495c0-.043.02-.086.027-.129.007-.043 0-.043 0-.062v-.076-.026-69.25c0-.09-.007-.182-.02-.272.002-.02.002-.04 0-.06-.013-.088-.033-.175-.06-.26.002-.005.002-.011 0-.017-.024-.082-.055-.161-.092-.238 0-.017 0-.031-.02-.046-.04-.083-.085-.162-.136-.239-.047-.07-.099-.137-.155-.2l-.048-.053-.046-.05L52.44.592c-.794-.79-2.077-.79-2.87 0L.572 49.52c-.013.017-.029.034-.045.05-.014.019-.031.035-.045.052-.057.063-.109.13-.156.2-.05.078-.094.157-.134.24-.008.014-.014.03-.019.045-.037.077-.068.157-.093.239v.016c-.026.086-.046.173-.06.26v.06c-.012.09-.019.182-.02.273V120.366c0 .022.018.086.027.13v.05c.023.088.052.175.086.26.012.024.024.047.034.071.007.016.015.031.024.046.02.045.044.089.069.131l.029.045.03.053c.038.056.079.11.123.162l.038.043.043.046c.03.035.064.068.098.1l.048.043c.014.012.026.026.043.038.053.043.108.084.165.122l.053.031.045.029.13.069.047.024.072.033c.06.026.121.048.184.067h.043c.05.014.098.029.148.038h.196c.067.003.134.003.201 0h97.986c.067.003.134.003.2 0h.194l.163-.04h.031c.063-.019.124-.041.184-.067l.072-.034.048-.023.129-.07.045-.028.053-.031c.056-.038.11-.078.163-.122.016-.012.028-.026.043-.038l.045-.043c.036-.031.07-.065.1-.1l.043-.046.039-.043c.044-.052.084-.106.122-.162.011-.017.021-.035.03-.053l.03-.045c.025-.043.048-.087.069-.132.009-.014.017-.03.024-.045 0-.024.021-.048.033-.072.034-.085.063-.172.086-.26.055-.014.058-.031.063-.048zM4 56l30 29.5L4 115V56zm34.062 30.938L51 74l12.938 12.938L95 118H7l31.062-31.062zM98 115L68 85.5 98 56v59zM51 5l46 46.22L65.365 83 52.434 70.008c-.792-.792-2.072-.792-2.863 0L36.64 83 5 51.22 51 5z" transform="translate(-791 -936) translate(791 936)"/>
                <path fill="#CF6766" d="M32.113 42c1.166-.001 2.111-.91 2.113-2.03-.011-3.506 1.167-6.92 3.355-9.727.451-.581.545-1.35.247-2.016-.299-.666-.945-1.128-1.694-1.213-.75-.085-1.49.221-1.94.803-2.736 3.505-4.208 7.772-4.194 12.153.001 1.12.947 2.029 2.113 2.03zM67.774 39.97c0 1.121.946 2.03 2.113 2.03S72 41.091 72 39.97c.014-4.381-1.458-8.648-4.193-12.153-.698-.899-2.021-1.084-2.957-.414-.935.67-1.128 1.941-.431 2.84 2.188 2.806 3.366 6.22 3.355 9.727zM38.15 39.556c0 .297 0 .596.029.886.283 3.743-.533 7.488-2.346 10.755l-.061.104c-1.03 1.818-1.03 4.059 0 5.877 1.029 1.819 2.93 2.939 4.988 2.939h2.703C44.386 63.589 47.475 66 51.001 66c3.526 0 6.614-2.41 7.537-5.883h2.703c2.057 0 3.958-1.12 4.987-2.938s1.03-4.057.002-5.876l-.062-.108c-1.827-3.197-2.653-6.887-2.366-10.577.042-.549.052-1.1.028-1.651-.307-6.204-4.811-11.35-10.818-12.36v-5.555c0-1.133-.9-2.052-2.011-2.052-1.111 0-2.012.919-2.012 2.052v5.554c-6.244 1.013-10.84 6.507-10.839 12.957v-.007zM51 61.918c-1.296-.002-2.502-.682-3.194-1.801h6.39c-.693 1.119-1.898 1.799-3.195 1.801zm-6.103-28.872c1.639-1.61 3.827-2.506 6.101-2.5h.405c2.395.11 4.643 1.208 6.227 3.044 1.584 1.836 2.368 4.25 2.17 6.688-.355 4.519.652 9.04 2.884 12.96l.06.106c.31.548.31 1.223 0 1.77-.31.549-.883.886-1.503.886H40.76c-.62 0-1.194-.337-1.504-.885-.31-.548-.31-1.223 0-1.771l.06-.106c2.211-3.972 3.212-8.526 2.875-13.08-.014-.201-.019-.406-.019-.612-.006-2.456.979-4.807 2.724-6.5z" transform="translate(-791 -936) translate(791 936)"/>
            </g>
        </g>
    </g>
</svg>
