<svg xmlns="http://www.w3.org/2000/svg" width="117" height="119" viewBox="0 0 117 119">
    <g fill="none" fill-rule="evenodd">
        <g fill-rule="nonzero">
            <g>
                <path fill="#CF6766" d="M1.883 35h30.234C33.17 35 34 34.163 34 33.165V1.835C34 .81 33.142 0 32.117 0H1.883C.831 0 .001.837.001 1.835v31.33C-.027 34.163.83 35 1.883 35zm1.883-3.697v-1.835h26.469v1.835H3.766zm2.88-5.532l5.73-5.235 8.971 3.292c.748.27 1.578.054 2.077-.513l6.755-7.583v10.039H6.645zM30.234 3.67v6.45l-8.75 9.795-8.86-3.238c-.664-.243-1.439-.108-1.965.378l-6.894 6.314V3.67h26.469z" transform="translate(-170 -1733) translate(170 1733)"/>
                <path fill="#CF6766" d="M9.5 13c1.924 0 3.5-1.576 3.5-3.5S11.424 6 9.5 6 6 7.576 6 9.5 7.576 13 9.5 13zm0-4.196c.389 0 .696.307.696.696 0 .389-.307.696-.696.696-.389 0-.696-.307-.696-.696 0-.389.307-.696.696-.696z" transform="translate(-170 -1733) translate(170 1733)"/>
                <path fill="#666" d="M32.117 101c1.052 0 1.883-.837 1.883-1.835v-31.33C34 66.81 33.142 66 32.117 66H1.883C.83 66 0 66.837 0 67.835v31.33C0 100.19.858 101 1.883 101h30.234zM3.765 97.33v-1.835h26.47v1.835H3.765zm2.88-5.532l5.731-5.235 8.97 3.292c.748.27 1.58.054 2.077-.513l6.756-7.583v10.039H6.645zm23.59-22.101v6.45l-8.75 9.795-8.86-3.238c-.664-.243-1.44-.108-1.965.378l-6.895 6.314V69.697h26.47z" transform="translate(-170 -1733) translate(170 1733)"/>
                <path fill="#666" d="M9.5 79c1.924 0 3.5-1.576 3.5-3.5S11.424 72 9.5 72 6 73.576 6 75.5C6 77.444 7.576 79 9.5 79zm0-4.196c.389 0 .696.307.696.696 0 .389-.307.696-.696.696-.389 0-.696-.307-.696-.696 0-.368.307-.696.696-.696zM74.117 0H43.883C42.83 0 42 .837 42 1.835v31.33C42 34.19 42.858 35 43.883 35h30.234C75.17 35 76 34.163 76 33.165V1.862C76 .837 75.17 0 74.117 0zm-1.882 3.697v6.45l-8.75 9.795-8.86-3.238c-.664-.243-1.44-.108-1.965.378l-6.895 6.314V3.697h26.47zm0 12.062v10.039H48.673l5.73-5.235 8.972 3.292c.747.27 1.578.054 2.076-.513l6.784-7.583zM45.765 31.33v-1.835h26.47v1.835h-26.47z" transform="translate(-170 -1733) translate(170 1733)"/>
                <path fill="#666" d="M51.5 13c1.924 0 3.5-1.576 3.5-3.5S53.424 6 51.5 6 48 7.576 48 9.5s1.576 3.5 3.5 3.5zm0-4.196c.389 0 .696.307.696.696 0 .389-.307.696-.696.696-.389 0-.696-.307-.696-.696 0-.389.307-.696.696-.696z" transform="translate(-170 -1733) translate(170 1733)"/>
                <path fill="#CF6766" d="M74.117 66H43.883C42.83 66 42 66.837 42 67.835v31.33c0 1.025.858 1.835 1.883 1.835h30.234c1.052 0 1.883-.837 1.883-1.835v-31.33c0-.998-.83-1.835-1.883-1.835zm-1.882 31.33h-26.47V69.697h26.47V97.33z" transform="translate(-170 -1733) translate(170 1733)"/>
                <path fill="#CF6766" d="M52.664 85.83l-.89 2.86c-.42 1.361.026 2.832 1.152 3.677.55.408 1.205.626 1.86.626.654 0 1.309-.218 1.859-.626l2.357-1.77 2.357 1.77c1.1.844 2.592.844 3.718 0 1.1-.845 1.572-2.316 1.153-3.678l-.89-2.86 2.356-1.77c1.1-.844 1.572-2.315 1.153-3.677-.42-1.362-1.624-2.261-3.012-2.261H62.93l-.89-2.86C61.62 73.899 60.416 73 59.028 73s-2.566.899-3.012 2.26l-.89 2.86h-2.96c-1.361 0-2.566.9-3.01 2.262-.42 1.362.025 2.833 1.151 3.677l2.357 1.77zm2.724-3.977c1.362 0 2.566-.9 3.011-2.261l.603-1.88.602 1.88c.42 1.362 1.624 2.26 3.012 2.26h1.911l-1.545 1.172c-1.1.844-1.57 2.315-1.152 3.677l.602 1.88-1.545-1.172c-1.1-.844-2.592-.844-3.718 0l-1.545 1.172.602-1.88c.419-1.362-.026-2.833-1.152-3.677l-1.546-1.171h1.86z" transform="translate(-170 -1733) translate(170 1733)"/>
                <path fill="#666" d="M32.117 46H1.883C.83 46 0 45.088 0 44c0-1.118.858-2 1.883-2h30.234C33.17 42 34 42.912 34 44c0 1.118-.858 2-1.883 2zM17.114 53H1.859C.82 53 0 52.088 0 51c0-1.118.847-2 1.859-2h15.282C18.18 49 19 49.912 19 51s-.847 2-1.886 2zM32.273 53h-7.546C23.762 53 23 52.088 23 51c0-1.118.788-2 1.727-2h7.546c.965 0 1.727.912 1.727 2s-.788 2-1.727 2zM74.117 49H43.883C42.83 49 42 49.912 42 51c0 1.118.858 2 1.883 2h30.234C75.17 53 76 52.088 76 51s-.83-2-1.883-2zM59.141 42H43.859C42.82 42 42 42.912 42 44c0 1.118.847 2 1.859 2h15.282C60.18 46 61 45.088 61 44c0-1.118-.82-2-1.859-2zM74.273 42h-7.546c-.965 0-1.727.912-1.727 2 0 1.118.788 2 1.727 2h7.546c.965 0 1.727-.912 1.727-2 0-1.118-.762-2-1.727-2zM43.883 112h30.234c1.052 0 1.883-.912 1.883-2 0-1.118-.858-2-1.883-2H43.883c-1.052 0-1.883.912-1.883 2s.83 2 1.883 2zM58.859 119h15.282c1.039 0 1.859-.912 1.859-2 0-1.118-.847-2-1.859-2H58.859c-1.039 0-1.859.912-1.859 2s.82 2 1.859 2zM43.727 119h7.546c.965 0 1.727-.912 1.727-2 0-1.118-.788-2-1.727-2h-7.546c-.965 0-1.727.912-1.727 2s.762 2 1.727 2zM1.883 115h30.234c1.052 0 1.883.912 1.883 2 0 1.118-.858 2-1.883 2H1.883c-1.052 0-1.882-.912-1.882-2-.028-1.088.83-2 1.882-2zM16.859 108h15.282c1.039 0 1.859.912 1.859 2 0 1.118-.847 2-1.859 2H16.859c-1.039 0-1.859-.912-1.859-2s.82-2 1.859-2zM1.728 108h7.545c.965 0 1.727.912 1.727 2 0 1.118-.787 2-1.727 2H1.728c-.965 0-1.727-.912-1.727-2-.026-1.088.762-2 1.727-2zM84.883 35h30.234c1.052 0 1.883-.837 1.883-1.835V1.835C117 .81 116.142 0 115.117 0H84.883C83.83 0 83 .837 83 1.835v31.33c0 .998.83 1.835 1.883 1.835zm1.882-3.697v-1.835h26.47v1.835h-26.47zm0-7.934V3.67h26.47v22.101H86.793v-2.402h-.028z" transform="translate(-170 -1733) translate(170 1733)"/>
                <path fill="#CF6766" d="M115.117 101c1.052 0 1.883-.837 1.883-1.835v-31.33c0-1.025-.858-1.835-1.883-1.835H84.883C83.83 66 83 66.837 83 67.835v31.33c0 1.025.858 1.835 1.883 1.835h30.234zm-28.352-3.67v-1.835h26.47v1.835h-26.47zm2.908-5.532l5.73-5.235 8.972 3.292c.747.27 1.578.054 2.076-.513l6.756-7.583v10.039H89.673zm23.562-22.101v6.45l-8.75 9.795-8.86-3.238c-.664-.243-1.44-.108-1.965.378l-6.895 6.314V69.697h26.47z" transform="translate(-170 -1733) translate(170 1733)"/>
                <path fill="#CF6766" d="M94.5 79c1.924 0 3.5-1.576 3.5-3.5S96.424 72 94.5 72 91 73.576 91 75.5c.02 1.944 1.576 3.5 3.5 3.5zm0-4.196c.389 0 .696.307.696.696 0 .389-.307.696-.696.696-.389 0-.696-.307-.696-.696 0-.368.328-.696.696-.696z" transform="translate(-170 -1733) translate(170 1733)"/>
                <path fill="#666" d="M115.117 46H84.883C83.83 46 83 45.088 83 44c0-1.118.858-2 1.883-2h30.234c1.052 0 1.882.912 1.882 2 .028 1.118-.83 2-1.882 2zM100.141 53H84.859C83.82 53 83 52.088 83 51c0-1.118.847-2 1.859-2h15.282c1.039 0 1.859.912 1.859 2s-.82 2-1.859 2zM115.272 53h-7.545c-.965 0-1.727-.912-1.727-2 0-1.118.787-2 1.727-2h7.545c.965 0 1.727.912 1.727 2 .026 1.088-.762 2-1.727 2zM84.883 115h30.234c1.052 0 1.883.912 1.883 2 0 1.118-.858 2-1.883 2H84.883c-1.052 0-1.883-.912-1.883-2s.858-2 1.883-2zM99.86 108h15.281c1.039 0 1.859.912 1.859 2 0 1.118-.847 2-1.859 2H99.86c-1.04 0-1.86-.912-1.86-2-.027-1.088.82-2 1.86-2zM84.727 108h7.546c.965 0 1.727.912 1.727 2 0 1.118-.788 2-1.727 2h-7.546c-.965 0-1.727-.912-1.727-2s.788-2 1.727-2zM101 18c-3.304 0-6-2.696-6-6s2.696-6 6-6 6 2.696 6 6-2.696 6-6 6zm0-8.3c-1.269 0-2.3 1.031-2.3 2.3s1.031 2.3 2.3 2.3 2.3-1.031 2.3-2.3-1.031-2.3-2.3-2.3z" transform="translate(-170 -1733) translate(170 1733)"/>
                <path fill="#666" d="M112 27h-3.55c0-4.012-3.12-7.28-6.95-7.28s-6.95 3.268-6.95 7.28H91c0-6.058 4.717-11 10.5-11S112 20.942 112 27z" transform="translate(-170 -1733) translate(170 1733)"/>
            </g>
        </g>
    </g>
</svg>
